<?xml version="1.0" encoding="UTF-8"?>
<svg width="15.9998833px" height="16px" viewBox="0 0 15.9998833 16" version="1.1" xmlns="http://www.w3.org/2000/svg" xmlns:xlink="http://www.w3.org/1999/xlink">
    <title>073E09DD-8669-47BB-9CDD-36A05C5845B2</title>
    <g id="Page-1" stroke="none" stroke-width="1" fill="none" fill-rule="evenodd">
        <g id="Job-Status-2" transform="translate(-1270.000117, -473.000000)">
            <g id="icon/action/view" transform="translate(1270.000117, 473.000000)">
                <g id="background" transform="translate(-0.000000, 0.000000)">
                    <rect id="Rectangle" x="0" y="0" width="15.9998833" height="16"></rect>
                </g>
                <g id="noun-view-1256613-(1)" transform="translate(0.399883, 3.000000)" fill="#2D2F2F" fill-rule="nonzero">
                    <path d="M7.62174989,0 C6.47177686,0 3.45313887,0.377798174 0.261850529,3.88500757 C0.0933343164,4.07038709 0,4.31185175 0,4.56235814 C0,4.81284954 0.0933343164,5.05443712 0.261850529,5.23982864 C3.45163991,8.74529923 6.47354563,9.1248362 7.62174989,9.1248362 C8.77010404,9.12471907 11.7903609,8.74529923 14.9816492,5.23323321 C15.1501655,5.04785368 15.2434998,4.80638902 15.2434998,4.55588263 C15.2434998,4.30539123 15.1501655,4.06380366 14.9816492,3.87841214 C11.7900611,0.378038008 8.7717529,0.000299792235 7.62174989,0.000299792235 L7.62174989,0 Z M7.62174989,7.50290026 C6.84414879,7.49177527 6.10264268,7.17324871 5.55938917,6.61686431 C5.01601574,6.0604799 4.71517424,5.3115989 4.72254913,4.53390786 C4.72992671,3.75630676 5.04494569,3.01327171 5.59863197,2.46732007 C6.15243817,1.92136843 6.89991015,1.61689944 7.67751124,1.62049488 C8.45520228,1.62415711 9.19964636,1.93566852 9.74829613,2.48677659 C10.2969459,3.03788465 10.6049225,3.78385767 10.6050424,4.5615487 C10.5988358,5.34697438 10.2812368,6.09786399 9.72182447,6.64933181 C9.16253208,7.20079962 8.40717556,7.50784683 7.62174989,7.50298838 L7.62174989,7.50290026 Z" id="Shape"></path>
                </g>
            </g>
        </g>
    </g>
</svg>



